<mxfile host="app.diagrams.net" modified="2021-02-24T20:54:24.553Z" agent="5.0 (Windows NT 10.0; Win64; x64) AppleWebKit/537.36 (KHTML, like Gecko) Chrome/88.0.4324.182 Safari/537.36" etag="w1CsoQ_n8Gmd2ic8rRW0" version="14.4.3" type="github">
  <diagram id="hvX6cJB68AbvuT4Z8Mye" name="Page-1">
    <mxGraphModel dx="899" dy="473" grid="1" gridSize="10" guides="1" tooltips="1" connect="1" arrows="1" fold="1" page="1" pageScale="1" pageWidth="827" pageHeight="1169" math="0" shadow="0">
      <root>
        <mxCell id="0" />
        <mxCell id="1" parent="0" />
        <mxCell id="MxpjGIcNitxCNoVR-P4U-1" value="" style="rounded=0;whiteSpace=wrap;html=1;" parent="1" vertex="1">
          <mxGeometry x="310" y="50" width="120" height="160" as="geometry" />
        </mxCell>
        <mxCell id="MxpjGIcNitxCNoVR-P4U-2" value="" style="endArrow=classic;html=1;exitX=0.5;exitY=1;exitDx=0;exitDy=0;entryX=0.5;entryY=0;entryDx=0;entryDy=0;" parent="1" source="MxpjGIcNitxCNoVR-P4U-1" target="MxpjGIcNitxCNoVR-P4U-30" edge="1">
          <mxGeometry width="50" height="50" relative="1" as="geometry">
            <mxPoint x="290" y="370" as="sourcePoint" />
            <mxPoint x="480" y="320" as="targetPoint" />
          </mxGeometry>
        </mxCell>
        <mxCell id="MxpjGIcNitxCNoVR-P4U-3" value="" style="endArrow=classic;html=1;exitX=0.5;exitY=1;exitDx=0;exitDy=0;entryX=0.5;entryY=0;entryDx=0;entryDy=0;" parent="1" source="MxpjGIcNitxCNoVR-P4U-1" target="MxpjGIcNitxCNoVR-P4U-6" edge="1">
          <mxGeometry width="50" height="50" relative="1" as="geometry">
            <mxPoint x="380" y="220" as="sourcePoint" />
            <mxPoint x="270" y="320" as="targetPoint" />
          </mxGeometry>
        </mxCell>
        <mxCell id="MxpjGIcNitxCNoVR-P4U-4" value="Teacher" style="rounded=1;whiteSpace=wrap;html=1;fillColor=#dae8fc;strokeColor=#6c8ebf;" parent="1" vertex="1">
          <mxGeometry x="330" y="80" width="80" height="40" as="geometry" />
        </mxCell>
        <mxCell id="MxpjGIcNitxCNoVR-P4U-5" value="Student" style="rounded=1;whiteSpace=wrap;html=1;fillColor=#dae8fc;strokeColor=#6c8ebf;" parent="1" vertex="1">
          <mxGeometry x="330" y="140" width="80" height="40" as="geometry" />
        </mxCell>
        <mxCell id="MxpjGIcNitxCNoVR-P4U-6" value="" style="rounded=0;whiteSpace=wrap;html=1;" parent="1" vertex="1">
          <mxGeometry x="190" y="330" width="120" height="160" as="geometry" />
        </mxCell>
        <mxCell id="MxpjGIcNitxCNoVR-P4U-7" value="Teacher" style="rounded=1;whiteSpace=wrap;html=1;" parent="1" vertex="1">
          <mxGeometry x="210" y="340" width="80" height="20" as="geometry" />
        </mxCell>
        <mxCell id="MxpjGIcNitxCNoVR-P4U-8" value="Test Module" style="rounded=1;whiteSpace=wrap;html=1;fillColor=#dae8fc;strokeColor=#6c8ebf;" parent="1" vertex="1">
          <mxGeometry x="210" y="380" width="80" height="40" as="geometry" />
        </mxCell>
        <mxCell id="MxpjGIcNitxCNoVR-P4U-9" value="Results" style="rounded=1;whiteSpace=wrap;html=1;fillColor=#dae8fc;strokeColor=#6c8ebf;" parent="1" vertex="1">
          <mxGeometry x="210" y="430" width="80" height="40" as="geometry" />
        </mxCell>
        <mxCell id="MxpjGIcNitxCNoVR-P4U-10" value="" style="endArrow=classic;html=1;exitX=0.5;exitY=1;exitDx=0;exitDy=0;entryX=0.5;entryY=0;entryDx=0;entryDy=0;" parent="1" source="MxpjGIcNitxCNoVR-P4U-6" target="MxpjGIcNitxCNoVR-P4U-13" edge="1">
          <mxGeometry width="50" height="50" relative="1" as="geometry">
            <mxPoint x="250" y="525" as="sourcePoint" />
            <mxPoint x="180" y="590" as="targetPoint" />
          </mxGeometry>
        </mxCell>
        <mxCell id="MxpjGIcNitxCNoVR-P4U-11" value="" style="endArrow=classic;html=1;exitX=0.5;exitY=1;exitDx=0;exitDy=0;entryX=0.5;entryY=0;entryDx=0;entryDy=0;" parent="1" source="MxpjGIcNitxCNoVR-P4U-6" target="MxpjGIcNitxCNoVR-P4U-26" edge="1">
          <mxGeometry width="50" height="50" relative="1" as="geometry">
            <mxPoint x="260" y="500" as="sourcePoint" />
            <mxPoint x="225" y="610" as="targetPoint" />
          </mxGeometry>
        </mxCell>
        <mxCell id="MxpjGIcNitxCNoVR-P4U-12" value="" style="group" parent="1" vertex="1" connectable="0">
          <mxGeometry x="10" y="600" width="220" height="230" as="geometry" />
        </mxCell>
        <mxCell id="MxpjGIcNitxCNoVR-P4U-13" value="" style="rounded=0;whiteSpace=wrap;html=1;" parent="MxpjGIcNitxCNoVR-P4U-12" vertex="1">
          <mxGeometry width="220" height="230" as="geometry" />
        </mxCell>
        <mxCell id="MxpjGIcNitxCNoVR-P4U-14" value="Teacher" style="rounded=1;whiteSpace=wrap;html=1;" parent="MxpjGIcNitxCNoVR-P4U-12" vertex="1">
          <mxGeometry x="76.52173913043478" y="10" width="76.52173913043478" height="20" as="geometry" />
        </mxCell>
        <mxCell id="MxpjGIcNitxCNoVR-P4U-15" style="edgeStyle=orthogonalEdgeStyle;rounded=0;orthogonalLoop=1;jettySize=auto;html=1;exitX=1;exitY=0;exitDx=0;exitDy=0;fontSize=8;" parent="MxpjGIcNitxCNoVR-P4U-12" edge="1">
          <mxGeometry relative="1" as="geometry">
            <mxPoint x="153.04347826086956" y="110" as="sourcePoint" />
            <mxPoint x="148.2608695652174" y="90" as="targetPoint" />
          </mxGeometry>
        </mxCell>
        <mxCell id="MxpjGIcNitxCNoVR-P4U-16" value="Question" style="rounded=1;whiteSpace=wrap;html=1;fillColor=#dae8fc;strokeColor=#6c8ebf;" parent="MxpjGIcNitxCNoVR-P4U-12" vertex="1">
          <mxGeometry x="28.695652173913043" y="120" width="76.52173913043478" height="17" as="geometry" />
        </mxCell>
        <mxCell id="MxpjGIcNitxCNoVR-P4U-17" value="Test Module" style="rounded=1;whiteSpace=wrap;html=1;" parent="MxpjGIcNitxCNoVR-P4U-12" vertex="1">
          <mxGeometry x="76.52173913043478" y="30" width="76.52173913043478" height="20" as="geometry" />
        </mxCell>
        <mxCell id="MxpjGIcNitxCNoVR-P4U-18" value="Course name" style="rounded=1;whiteSpace=wrap;html=1;fillColor=#dae8fc;strokeColor=#6c8ebf;" parent="MxpjGIcNitxCNoVR-P4U-12" vertex="1">
          <mxGeometry x="76.52173913043478" y="70" width="76.52173913043478" height="20" as="geometry" />
        </mxCell>
        <mxCell id="MxpjGIcNitxCNoVR-P4U-19" value="" style="rounded=1;whiteSpace=wrap;html=1;" parent="MxpjGIcNitxCNoVR-P4U-12" vertex="1">
          <mxGeometry x="76.52173913043478" y="90" width="76.52173913043478" height="20" as="geometry" />
        </mxCell>
        <mxCell id="MxpjGIcNitxCNoVR-P4U-20" value="" style="rounded=1;whiteSpace=wrap;html=1;" parent="MxpjGIcNitxCNoVR-P4U-12" vertex="1">
          <mxGeometry x="28.695652173913043" y="137" width="76.52173913043478" height="20" as="geometry" />
        </mxCell>
        <mxCell id="MxpjGIcNitxCNoVR-P4U-21" value="Answers" style="rounded=1;whiteSpace=wrap;html=1;fillColor=#dae8fc;strokeColor=#6c8ebf;" parent="MxpjGIcNitxCNoVR-P4U-12" vertex="1">
          <mxGeometry x="124.34782608695653" y="120" width="76.52173913043478" height="17" as="geometry" />
        </mxCell>
        <mxCell id="MxpjGIcNitxCNoVR-P4U-22" value="" style="rounded=1;whiteSpace=wrap;html=1;" parent="MxpjGIcNitxCNoVR-P4U-12" vertex="1">
          <mxGeometry x="124.34782608695653" y="137" width="76.52173913043478" height="20" as="geometry" />
        </mxCell>
        <mxCell id="MxpjGIcNitxCNoVR-P4U-23" value="Add" style="shape=delay;whiteSpace=wrap;html=1;fontSize=12;fillColor=#dae8fc;strokeColor=#6c8ebf;" parent="MxpjGIcNitxCNoVR-P4U-12" vertex="1">
          <mxGeometry x="129.1304347826087" y="180" width="66.95652173913044" height="20" as="geometry" />
        </mxCell>
        <mxCell id="MxpjGIcNitxCNoVR-P4U-24" value="Save &amp;amp; Exit" style="rounded=1;whiteSpace=wrap;html=1;fillColor=#dae8fc;strokeColor=#6c8ebf;" parent="MxpjGIcNitxCNoVR-P4U-12" vertex="1">
          <mxGeometry x="28.695652173913043" y="180" width="76.52173913043478" height="20" as="geometry" />
        </mxCell>
        <mxCell id="MxpjGIcNitxCNoVR-P4U-25" value="" style="group" parent="1" vertex="1" connectable="0">
          <mxGeometry x="250" y="600" width="160" height="230" as="geometry" />
        </mxCell>
        <mxCell id="MxpjGIcNitxCNoVR-P4U-26" value="" style="rounded=0;whiteSpace=wrap;html=1;" parent="MxpjGIcNitxCNoVR-P4U-25" vertex="1">
          <mxGeometry width="160" height="230" as="geometry" />
        </mxCell>
        <mxCell id="MxpjGIcNitxCNoVR-P4U-27" value="Teacher" style="rounded=1;whiteSpace=wrap;html=1;" parent="MxpjGIcNitxCNoVR-P4U-25" vertex="1">
          <mxGeometry x="40" y="10" width="80" height="20" as="geometry" />
        </mxCell>
        <mxCell id="MxpjGIcNitxCNoVR-P4U-28" value="Results" style="rounded=1;whiteSpace=wrap;html=1;" parent="MxpjGIcNitxCNoVR-P4U-25" vertex="1">
          <mxGeometry x="40" y="30" width="80" height="20" as="geometry" />
        </mxCell>
        <mxCell id="MxpjGIcNitxCNoVR-P4U-29" value="" style="group" parent="1" vertex="1" connectable="0">
          <mxGeometry x="580" y="330" width="120" height="160" as="geometry" />
        </mxCell>
        <mxCell id="MxpjGIcNitxCNoVR-P4U-30" value="" style="rounded=0;whiteSpace=wrap;html=1;" parent="MxpjGIcNitxCNoVR-P4U-29" vertex="1">
          <mxGeometry width="120" height="160" as="geometry" />
        </mxCell>
        <mxCell id="MxpjGIcNitxCNoVR-P4U-31" value="Student" style="rounded=1;whiteSpace=wrap;html=1;" parent="MxpjGIcNitxCNoVR-P4U-29" vertex="1">
          <mxGeometry x="20" y="10" width="80" height="20" as="geometry" />
        </mxCell>
        <mxCell id="MxpjGIcNitxCNoVR-P4U-32" value="Courses" style="rounded=1;whiteSpace=wrap;html=1;fillColor=#dae8fc;strokeColor=#6c8ebf;" parent="MxpjGIcNitxCNoVR-P4U-29" vertex="1">
          <mxGeometry x="20" y="50" width="80" height="40" as="geometry" />
        </mxCell>
        <mxCell id="MxpjGIcNitxCNoVR-P4U-33" value="My scores" style="rounded=1;whiteSpace=wrap;html=1;fillColor=#dae8fc;strokeColor=#6c8ebf;" parent="MxpjGIcNitxCNoVR-P4U-29" vertex="1">
          <mxGeometry x="20" y="100" width="80" height="40" as="geometry" />
        </mxCell>
        <mxCell id="MxpjGIcNitxCNoVR-P4U-34" value="" style="group" parent="1" vertex="1" connectable="0">
          <mxGeometry x="650" y="600" width="160" height="230" as="geometry" />
        </mxCell>
        <mxCell id="MxpjGIcNitxCNoVR-P4U-35" value="" style="rounded=0;whiteSpace=wrap;html=1;" parent="MxpjGIcNitxCNoVR-P4U-34" vertex="1">
          <mxGeometry width="160" height="230" as="geometry" />
        </mxCell>
        <mxCell id="MxpjGIcNitxCNoVR-P4U-36" value="Student" style="rounded=1;whiteSpace=wrap;html=1;" parent="MxpjGIcNitxCNoVR-P4U-34" vertex="1">
          <mxGeometry x="40" y="10" width="80" height="20" as="geometry" />
        </mxCell>
        <mxCell id="MxpjGIcNitxCNoVR-P4U-37" value="Results" style="rounded=1;whiteSpace=wrap;html=1;" parent="MxpjGIcNitxCNoVR-P4U-34" vertex="1">
          <mxGeometry x="40" y="30" width="80" height="20" as="geometry" />
        </mxCell>
        <mxCell id="MxpjGIcNitxCNoVR-P4U-38" value="" style="endArrow=classic;html=1;exitX=0.5;exitY=1;exitDx=0;exitDy=0;entryX=0.5;entryY=0;entryDx=0;entryDy=0;" parent="1" source="MxpjGIcNitxCNoVR-P4U-30" target="MxpjGIcNitxCNoVR-P4U-35" edge="1">
          <mxGeometry width="50" height="50" relative="1" as="geometry">
            <mxPoint x="670" y="490" as="sourcePoint" />
            <mxPoint x="750" y="600" as="targetPoint" />
          </mxGeometry>
        </mxCell>
        <mxCell id="MxpjGIcNitxCNoVR-P4U-39" value="" style="endArrow=classic;html=1;exitX=0.5;exitY=1;exitDx=0;exitDy=0;entryX=0.5;entryY=0;entryDx=0;entryDy=0;" parent="1" source="MxpjGIcNitxCNoVR-P4U-30" target="MxpjGIcNitxCNoVR-P4U-40" edge="1">
          <mxGeometry width="50" height="50" relative="1" as="geometry">
            <mxPoint x="570" y="500" as="sourcePoint" />
            <mxPoint x="650" y="610" as="targetPoint" />
          </mxGeometry>
        </mxCell>
        <mxCell id="MxpjGIcNitxCNoVR-P4U-40" value="" style="rounded=0;whiteSpace=wrap;html=1;" parent="1" vertex="1">
          <mxGeometry x="450" y="600" width="180" height="230" as="geometry" />
        </mxCell>
        <mxCell id="MxpjGIcNitxCNoVR-P4U-41" value="Math" style="rounded=1;whiteSpace=wrap;html=1;fillColor=#dae8fc;strokeColor=#6c8ebf;" parent="1" vertex="1">
          <mxGeometry x="470" y="690" width="80" height="30" as="geometry" />
        </mxCell>
        <mxCell id="MxpjGIcNitxCNoVR-P4U-42" value="Science" style="rounded=1;whiteSpace=wrap;html=1;fillColor=#dae8fc;strokeColor=#6c8ebf;" parent="1" vertex="1">
          <mxGeometry x="470" y="730" width="80" height="30" as="geometry" />
        </mxCell>
        <mxCell id="MxpjGIcNitxCNoVR-P4U-43" value="History" style="rounded=1;whiteSpace=wrap;html=1;fillColor=#dae8fc;strokeColor=#6c8ebf;" parent="1" vertex="1">
          <mxGeometry x="470" y="772" width="80" height="30" as="geometry" />
        </mxCell>
        <mxCell id="MxpjGIcNitxCNoVR-P4U-44" value="Student" style="rounded=1;whiteSpace=wrap;html=1;" parent="1" vertex="1">
          <mxGeometry x="500" y="610" width="80" height="20" as="geometry" />
        </mxCell>
        <mxCell id="MxpjGIcNitxCNoVR-P4U-45" value="Courses" style="rounded=1;whiteSpace=wrap;html=1;" parent="1" vertex="1">
          <mxGeometry x="500" y="630" width="80" height="20" as="geometry" />
        </mxCell>
        <mxCell id="MxpjGIcNitxCNoVR-P4U-46" value="Card" style="rounded=1;whiteSpace=wrap;html=1;fillColor=#dae8fc;strokeColor=#6c8ebf;" parent="1" vertex="1">
          <mxGeometry x="550" y="690" width="30" height="30" as="geometry" />
        </mxCell>
        <mxCell id="MxpjGIcNitxCNoVR-P4U-47" value="Quiz" style="rounded=1;whiteSpace=wrap;html=1;fillColor=#dae8fc;strokeColor=#6c8ebf;" parent="1" vertex="1">
          <mxGeometry x="580" y="690" width="30" height="30" as="geometry" />
        </mxCell>
        <mxCell id="MxpjGIcNitxCNoVR-P4U-48" value="Card" style="rounded=1;whiteSpace=wrap;html=1;fillColor=#dae8fc;strokeColor=#6c8ebf;" parent="1" vertex="1">
          <mxGeometry x="550" y="730" width="30" height="30" as="geometry" />
        </mxCell>
        <mxCell id="MxpjGIcNitxCNoVR-P4U-49" value="Quiz" style="rounded=1;whiteSpace=wrap;html=1;fillColor=#dae8fc;strokeColor=#6c8ebf;" parent="1" vertex="1">
          <mxGeometry x="580" y="730" width="30" height="30" as="geometry" />
        </mxCell>
        <mxCell id="MxpjGIcNitxCNoVR-P4U-50" value="Card" style="rounded=1;whiteSpace=wrap;html=1;fillColor=#dae8fc;strokeColor=#6c8ebf;" parent="1" vertex="1">
          <mxGeometry x="550" y="772" width="30" height="30" as="geometry" />
        </mxCell>
        <mxCell id="MxpjGIcNitxCNoVR-P4U-51" value="Quiz" style="rounded=1;whiteSpace=wrap;html=1;fillColor=#dae8fc;strokeColor=#6c8ebf;" parent="1" vertex="1">
          <mxGeometry x="580" y="772" width="30" height="30" as="geometry" />
        </mxCell>
        <mxCell id="MxpjGIcNitxCNoVR-P4U-52" value="" style="group" parent="1" vertex="1" connectable="0">
          <mxGeometry x="340" y="920" width="190" height="230" as="geometry" />
        </mxCell>
        <mxCell id="MxpjGIcNitxCNoVR-P4U-53" value="" style="rounded=0;whiteSpace=wrap;html=1;" parent="MxpjGIcNitxCNoVR-P4U-52" vertex="1">
          <mxGeometry width="190" height="230" as="geometry" />
        </mxCell>
        <mxCell id="MxpjGIcNitxCNoVR-P4U-54" value="Student" style="rounded=1;whiteSpace=wrap;html=1;" parent="MxpjGIcNitxCNoVR-P4U-52" vertex="1">
          <mxGeometry x="40" y="10" width="100" height="20" as="geometry" />
        </mxCell>
        <mxCell id="MxpjGIcNitxCNoVR-P4U-55" value="Flashcard module" style="rounded=1;whiteSpace=wrap;html=1;" parent="MxpjGIcNitxCNoVR-P4U-52" vertex="1">
          <mxGeometry x="40" y="30" width="100" height="20" as="geometry" />
        </mxCell>
        <mxCell id="MxpjGIcNitxCNoVR-P4U-56" value="Question" style="rounded=1;whiteSpace=wrap;html=1;fillColor=#dae8fc;strokeColor=#6c8ebf;" parent="MxpjGIcNitxCNoVR-P4U-52" vertex="1">
          <mxGeometry x="8.915652173913031" y="100" width="76.52173913043478" height="17" as="geometry" />
        </mxCell>
        <mxCell id="MxpjGIcNitxCNoVR-P4U-57" value="" style="rounded=1;whiteSpace=wrap;html=1;" parent="MxpjGIcNitxCNoVR-P4U-52" vertex="1">
          <mxGeometry x="8.915652173913031" y="117" width="76.52173913043478" height="20" as="geometry" />
        </mxCell>
        <mxCell id="MxpjGIcNitxCNoVR-P4U-58" value="Answers" style="rounded=1;whiteSpace=wrap;html=1;fillColor=#dae8fc;strokeColor=#6c8ebf;" parent="MxpjGIcNitxCNoVR-P4U-52" vertex="1">
          <mxGeometry x="104.56782608695647" y="100" width="76.52173913043478" height="17" as="geometry" />
        </mxCell>
        <mxCell id="MxpjGIcNitxCNoVR-P4U-59" value="[hidden]" style="rounded=1;whiteSpace=wrap;html=1;" parent="MxpjGIcNitxCNoVR-P4U-52" vertex="1">
          <mxGeometry x="104.56782608695647" y="117" width="76.52173913043478" height="20" as="geometry" />
        </mxCell>
        <mxCell id="MxpjGIcNitxCNoVR-P4U-60" value="Next" style="shape=delay;whiteSpace=wrap;html=1;fontSize=12;fillColor=#dae8fc;strokeColor=#6c8ebf;" parent="MxpjGIcNitxCNoVR-P4U-52" vertex="1">
          <mxGeometry x="109.35043478260866" y="160" width="66.95652173913044" height="20" as="geometry" />
        </mxCell>
        <mxCell id="MxpjGIcNitxCNoVR-P4U-61" value="Show answer" style="rounded=1;whiteSpace=wrap;html=1;fillColor=#dae8fc;strokeColor=#6c8ebf;" parent="MxpjGIcNitxCNoVR-P4U-52" vertex="1">
          <mxGeometry x="8.915652173913031" y="160" width="76.52173913043478" height="20" as="geometry" />
        </mxCell>
        <mxCell id="MxpjGIcNitxCNoVR-P4U-62" value="Course name" style="rounded=1;whiteSpace=wrap;html=1;" parent="MxpjGIcNitxCNoVR-P4U-52" vertex="1">
          <mxGeometry x="40" y="50" width="100" height="20" as="geometry" />
        </mxCell>
        <mxCell id="MxpjGIcNitxCNoVR-P4U-63" value="" style="group" parent="1" vertex="1" connectable="0">
          <mxGeometry x="580" y="920" width="190" height="230" as="geometry" />
        </mxCell>
        <mxCell id="MxpjGIcNitxCNoVR-P4U-64" value="" style="rounded=0;whiteSpace=wrap;html=1;" parent="MxpjGIcNitxCNoVR-P4U-63" vertex="1">
          <mxGeometry width="190" height="230" as="geometry" />
        </mxCell>
        <mxCell id="MxpjGIcNitxCNoVR-P4U-65" value="Student" style="rounded=1;whiteSpace=wrap;html=1;" parent="MxpjGIcNitxCNoVR-P4U-63" vertex="1">
          <mxGeometry x="50" y="10" width="80" height="20" as="geometry" />
        </mxCell>
        <mxCell id="MxpjGIcNitxCNoVR-P4U-66" value="Quiz module" style="rounded=1;whiteSpace=wrap;html=1;" parent="MxpjGIcNitxCNoVR-P4U-63" vertex="1">
          <mxGeometry x="50" y="30" width="80" height="20" as="geometry" />
        </mxCell>
        <mxCell id="MxpjGIcNitxCNoVR-P4U-67" value="Question" style="rounded=1;whiteSpace=wrap;html=1;fillColor=#dae8fc;strokeColor=#6c8ebf;" parent="MxpjGIcNitxCNoVR-P4U-63" vertex="1">
          <mxGeometry x="51.73565217391303" y="90" width="76.52173913043478" height="17" as="geometry" />
        </mxCell>
        <mxCell id="MxpjGIcNitxCNoVR-P4U-68" value="" style="rounded=1;whiteSpace=wrap;html=1;" parent="MxpjGIcNitxCNoVR-P4U-63" vertex="1">
          <mxGeometry x="51.73565217391303" y="107" width="76.52173913043478" height="20" as="geometry" />
        </mxCell>
        <mxCell id="MxpjGIcNitxCNoVR-P4U-69" value="Next" style="shape=delay;whiteSpace=wrap;html=1;fontSize=12;fillColor=#dae8fc;strokeColor=#6c8ebf;" parent="MxpjGIcNitxCNoVR-P4U-63" vertex="1">
          <mxGeometry x="110.00043478260866" y="160" width="66.95652173913044" height="20" as="geometry" />
        </mxCell>
        <mxCell id="MxpjGIcNitxCNoVR-P4U-70" value="Submit &amp;amp; Exit" style="rounded=1;whiteSpace=wrap;html=1;fillColor=#dae8fc;strokeColor=#6c8ebf;" parent="MxpjGIcNitxCNoVR-P4U-63" vertex="1">
          <mxGeometry x="36.74" y="200" width="110" height="20" as="geometry" />
        </mxCell>
        <mxCell id="MxpjGIcNitxCNoVR-P4U-71" value="Course name" style="rounded=1;whiteSpace=wrap;html=1;" parent="MxpjGIcNitxCNoVR-P4U-63" vertex="1">
          <mxGeometry x="50" y="50" width="80" height="20" as="geometry" />
        </mxCell>
        <mxCell id="MxpjGIcNitxCNoVR-P4U-72" value="Choices" style="rounded=1;whiteSpace=wrap;html=1;fillColor=#dae8fc;strokeColor=#6c8ebf;" parent="MxpjGIcNitxCNoVR-P4U-63" vertex="1">
          <mxGeometry x="53.4778260869565" y="133" width="76.52173913043478" height="17" as="geometry" />
        </mxCell>
        <mxCell id="MxpjGIcNitxCNoVR-P4U-73" value="Back" style="shape=delay;whiteSpace=wrap;html=1;fontSize=12;fillColor=#dae8fc;strokeColor=#6c8ebf;flipH=1;" parent="MxpjGIcNitxCNoVR-P4U-63" vertex="1">
          <mxGeometry x="20.000434782608664" y="160" width="66.95652173913044" height="20" as="geometry" />
        </mxCell>
        <mxCell id="MxpjGIcNitxCNoVR-P4U-74" value="" style="endArrow=classic;html=1;exitX=0.5;exitY=1;exitDx=0;exitDy=0;entryX=0.5;entryY=0;entryDx=0;entryDy=0;" parent="1" source="MxpjGIcNitxCNoVR-P4U-40" target="MxpjGIcNitxCNoVR-P4U-64" edge="1">
          <mxGeometry width="50" height="50" relative="1" as="geometry">
            <mxPoint x="720" y="840" as="sourcePoint" />
            <mxPoint x="800" y="950" as="targetPoint" />
          </mxGeometry>
        </mxCell>
        <mxCell id="MxpjGIcNitxCNoVR-P4U-75" value="" style="endArrow=classic;html=1;exitX=0.5;exitY=1;exitDx=0;exitDy=0;entryX=0.5;entryY=0;entryDx=0;entryDy=0;" parent="1" source="MxpjGIcNitxCNoVR-P4U-40" target="MxpjGIcNitxCNoVR-P4U-53" edge="1">
          <mxGeometry width="50" height="50" relative="1" as="geometry">
            <mxPoint x="550" y="840" as="sourcePoint" />
            <mxPoint x="625" y="910" as="targetPoint" />
          </mxGeometry>
        </mxCell>
      </root>
    </mxGraphModel>
  </diagram>
</mxfile>
